<svg xmlns="http://www.w3.org/2000/svg" width="58.784" height="15.576" viewBox="0 0 58.784 15.576">
  <path id="パス_575" data-name="パス 575" d="M-18.469-12.892c-1.078-1.672-2.9-2.486-5.324-2.486-3.608,0-5.192,1.87-5.192,4.268,0,2.508,1.5,3.938,4.488,4.73,2.464.638,3.1,1.232,3.1,2.288,0,.924-.594,1.694-2.354,1.694a3.792,3.792,0,0,1-3.3-1.518L-29.4-2.288C-28.061-.528-26.213.2-23.551.2c3.564,0,5.236-1.936,5.236-4.422,0-2.684-1.43-3.872-4.6-4.664-2.024-.506-2.992-1.034-2.992-2.222,0-1.034.748-1.672,2.134-1.672a3.091,3.091,0,0,1,2.992,1.54Zm9.592,9.768a1.934,1.934,0,0,1-1.826.946c-1.782,0-2.2-1.188-2.2-2.772V-6.094c0-1.76.616-2.728,2.2-2.728A2.076,2.076,0,0,1-8.9-7.9l2.112-1.474a4.332,4.332,0,0,0-3.85-1.826c-3.278,0-5.06,1.716-5.06,4.928v1.5C-15.7-1.782-13.937.2-10.791.2c1.98,0,3.234-.572,4-1.87ZM3.729-9.482A3.217,3.217,0,0,0,.759-11.2a2.725,2.725,0,0,0-2.4,1.122V-11h-2.75V0h2.816V-6.468c0-1.54.7-2.31,1.76-2.31a1.624,1.624,0,0,1,1.386.836Zm10.956,3.3c0-3.3-1.694-5.016-4.752-5.016-3.014,0-4.752,1.716-4.752,5.016v1.32C5.181-1.782,6.743.2,9.933.2c3.322,0,4.752-2.046,4.752-5.06Zm-4.752,4c-1.562,0-1.958-1.188-1.958-2.772V-6.094c0-1.76.572-2.728,1.958-2.728s1.958.968,1.958,2.728V-4.95C11.891-3.366,11.473-2.178,9.933-2.178ZM17.655-3.52C17.655-.77,19.041,0,22.011,0V-2.42c-1.188,0-1.54-.55-1.54-1.738V-15.18H17.655Zm7.37,0C25.025-.77,26.411,0,29.381,0V-2.42c-1.188,0-1.54-.55-1.54-1.738V-15.18H25.025Z" transform="translate(29.403 15.378)" fill="#151515"/>
</svg>
