<svg xmlns="http://www.w3.org/2000/svg" width="14.824" height="24.072" viewBox="0 0 14.824 24.072">
  <path id="パス_676" data-name="パス 676" d="M-2.414-10.4H-.782c2.72,0,4.114,1.428,4.114,3.808A3.33,3.33,0,0,1-.1-3.128c-2.414,0-3.6-1.292-3.876-2.992h-3.6C-7.378-2.414-4.692.306.068.306c4.522,0,7.174-3.094,7.174-6.8A5.869,5.869,0,0,0,3.57-12.172,5.739,5.739,0,0,0,6.9-17.408c0-3.536-2.992-6.358-7.106-6.358-3.774,0-6.97,2.482-7.072,6.256h3.6A3.178,3.178,0,0,1-.34-20.4a3.124,3.124,0,0,1,3.332,3.094c0,2.21-1.326,3.5-3.774,3.5H-2.414Z" transform="translate(7.582 23.766)" fill="#fff"/>
</svg>
