<svg xmlns="http://www.w3.org/2000/svg" width="188" height="35.451" viewBox="0 0 188 35.451">
  <g id="グループ_1008" data-name="グループ 1008" transform="translate(0)">
    <path id="パス_571" data-name="パス 571" d="M52.521,7.851a.2.2,0,0,1-.006.277,49.549,49.549,0,0,1-9.243,6.726.2.2,0,0,0-.1.154L41.447,34.727a.2.2,0,0,1-.2.18H37.21a.2.2,0,0,1-.2-.215l1.492-17.045a.2.2,0,0,0-.284-.193,65.588,65.588,0,0,1-10.039,4h0l-.726-4.108a.194.194,0,0,1,.141-.224,56.994,56.994,0,0,0,12.631-5.47A55.813,55.813,0,0,0,49.6,5.03a.2.2,0,0,1,.273.013Zm135.443,16.5-1.7-2.407a.2.2,0,0,0-.278-.044,34.747,34.747,0,0,1-11.157,5.342.2.2,0,0,0-.134.233l.69,2.933a.2.2,0,0,0,.255.143c1.525-.483,2.886-.959,4.137-1.452a.2.2,0,0,1,.267.2l-.519,5.936a.2.2,0,0,0,.2.215h3.089a.2.2,0,0,0,.2-.18l.688-7.866a.2.2,0,0,1,.1-.155,34.188,34.188,0,0,0,4.124-2.621.2.2,0,0,0,.045-.275M55.527,13.785H68.472a.2.2,0,0,1,.2.214L67.243,30.29a.2.2,0,0,1-.2.18H54.032a.2.2,0,0,0-.2.18l-.354,4.042a.2.2,0,0,0,.2.215H71.095a.2.2,0,0,0,.2-.18l2.2-25.165a.2.2,0,0,0-.2-.214H55.88a.2.2,0,0,0-.2.18L55.33,13.57a.2.2,0,0,0,.2.215M70.718,7.561h2.773a.2.2,0,0,0,.2-.18l.457-5.221a.2.2,0,0,0-.2-.214H71.175a.2.2,0,0,0-.2.18l-.457,5.222a.2.2,0,0,0,.2.214m4.006,0H77.5a.2.2,0,0,0,.2-.18L78.15,2.16a.2.2,0,0,0-.2-.214H75.181a.2.2,0,0,0-.2.18l-.457,5.222a.2.2,0,0,0,.2.214m104.068-.266H163.584a.2.2,0,0,0-.2.18l-.326,3.725a.2.2,0,0,0,.2.215h15.209a.2.2,0,0,0,.2-.18l.326-3.725a.2.2,0,0,0-.2-.215M181,18.416l.326-3.725a.2.2,0,0,0-.2-.215H159.988a.2.2,0,0,0-.2.18l-.326,3.725a.2.2,0,0,0,.2.215h8.2a.2.2,0,0,1,.2.225c-1.018,8.053-3.307,10.649-7.014,12.286a.2.2,0,0,0-.107.245l1.214,3.39a.2.2,0,0,0,.269.115c6.646-2.938,8.846-8.363,9.771-16.087a.2.2,0,0,1,.195-.174H180.8a.2.2,0,0,0,.2-.18M80.349,13.785H93.186a.2.2,0,0,1,.2.234c-2.226,12.786-12.173,16.228-13.65,16.671a.2.2,0,0,0-.137.222l.683,3.9a.2.2,0,0,0,.247.156,24.353,24.353,0,0,0,8.152-4.48c3.836-3.155,8.591-9,9.46-18.923l.175-2a.2.2,0,0,0-.2-.214H80.7a.2.2,0,0,0-.2.18l-.354,4.042a.2.2,0,0,0,.2.215M14.287,4.244H10.245a.2.2,0,0,0-.2.171c-.091.777-.312,2.577-.635,4.778a.2.2,0,0,1-.2.17H3.412a.2.2,0,0,0-.2.18l-.341,3.928a.2.2,0,0,0,.2.214H8.439a.2.2,0,0,1,.194.232,48.482,48.482,0,0,1-1.867,7.572,26.846,26.846,0,0,1-6.7,10.422.2.2,0,0,0,0,.292l2.887,2.58a.194.194,0,0,0,.264,0,32.256,32.256,0,0,0,7.7-12.04,55.467,55.467,0,0,0,2.188-8.9.2.2,0,0,1,.194-.161h5.1a.2.2,0,0,1,.2.215L17.155,30.29a.2.2,0,0,1-.2.18H14.914a.2.2,0,0,0-.2.18l-.354,4.042a.2.2,0,0,0,.2.215h6.446a.2.2,0,0,0,.2-.18L23.4,9.578a.2.2,0,0,0-.2-.214H14.063a.2.2,0,0,1-.195-.227c.319-2.191.529-3.939.614-4.674a.2.2,0,0,0-.2-.218M129.92,33.47l3.659,1.4a.2.2,0,0,0,.251-.1A81.542,81.542,0,0,0,141.2,9.581a.2.2,0,0,0-.2-.226h-4.044a.2.2,0,0,0-.2.172A77.226,77.226,0,0,1,129.811,33.2a.2.2,0,0,0,.108.267m20.656-22.952c-.05-.2-.1-.4-.158-.6s-.106-.392-.154-.567h0c-.066-.23-.123-.424-.161-.552a.2.2,0,0,0-.221-.138l-4.131.682a.2.2,0,0,0-.157.251,114.149,114.149,0,0,1,4.074,25.057.2.2,0,0,0,.225.185l4.054-.582a.2.2,0,0,0,.17-.209,124.96,124.96,0,0,0-3.538-23.53h0M105.393,5.209a6.615,6.615,0,0,1-1.977,2.851,10.4,10.4,0,0,0-1.505,1.919.73.73,0,0,1-1.234,0A10.369,10.369,0,0,0,99.171,8.06,6.608,6.608,0,0,1,97.2,5.209a4.007,4.007,0,0,1,.926-3.887,4.467,4.467,0,0,1,6.344,0,4.007,4.007,0,0,1,.927,3.887m-2.494-.9a1.606,1.606,0,1,0-1.606,1.606A1.605,1.605,0,0,0,102.9,4.31m54.631.9a6.605,6.605,0,0,1-1.977,2.851,10.383,10.383,0,0,0-1.5,1.919.73.73,0,0,1-1.234,0,10.384,10.384,0,0,0-1.505-1.919,6.614,6.614,0,0,1-1.977-2.851,4.005,4.005,0,0,1,.927-3.887,4.467,4.467,0,0,1,6.344,0,4.006,4.006,0,0,1,.926,3.887m-2.493-.9a1.606,1.606,0,1,0-1.606,1.606,1.605,1.605,0,0,0,1.606-1.606M103.462,34.692l2.2-25.167a.2.2,0,0,1,.2-.18h21.184a.2.2,0,0,1,.2.215l-2.2,25.167a.2.2,0,0,1-.2.18H103.659a.2.2,0,0,1-.2-.215m6.168-20.821-1.442,16.474a.2.2,0,0,0,.2.214h12.491a.2.2,0,0,0,.2-.18l1.441-16.473a.2.2,0,0,0-.2-.215H109.827a.2.2,0,0,0-.2.18" transform="translate(0)"/>
  </g>
</svg>
