<svg xmlns="http://www.w3.org/2000/svg" width="342" height="64.491" viewBox="0 0 342 64.491">
  <path id="パス_571" data-name="パス 571" d="M95.544,14.283a.356.356,0,0,1-.011.5A90.136,90.136,0,0,1,78.718,27.022a.363.363,0,0,0-.181.28L75.4,63.174a.358.358,0,0,1-.357.327h-7.35a.359.359,0,0,1-.358-.39L70.047,32.1a.361.361,0,0,0-.517-.351,119.315,119.315,0,0,1-18.262,7.272h0l-1.321-7.473a.354.354,0,0,1,.257-.407c1.965-.521,10.728-3.054,22.978-9.951A101.533,101.533,0,0,0,90.231,9.151a.354.354,0,0,1,.5.024ZM341.934,44.3l-3.1-4.378a.359.359,0,0,0-.5-.08c-5.791,4.257-11.18,6.834-20.3,9.718a.36.36,0,0,0-.244.423l1.255,5.335a.364.364,0,0,0,.463.259c2.773-.878,5.25-1.744,7.525-2.642a.355.355,0,0,1,.485.364l-.945,10.8a.36.36,0,0,0,.358.39h5.62a.358.358,0,0,0,.357-.328l1.252-14.31a.357.357,0,0,1,.187-.282,62.193,62.193,0,0,0,7.5-4.768.363.363,0,0,0,.082-.5M101.011,25.076H124.56a.358.358,0,0,1,.357.39L122.325,55.1a.359.359,0,0,1-.357.328H98.293a.358.358,0,0,0-.357.328l-.644,7.353a.359.359,0,0,0,.357.39h31.683a.359.359,0,0,0,.358-.327l4-45.779a.359.359,0,0,0-.358-.389H101.654a.359.359,0,0,0-.357.327l-.643,7.353a.36.36,0,0,0,.358.39m27.635-11.322h5.044a.358.358,0,0,0,.357-.328l.831-9.5a.358.358,0,0,0-.357-.39h-5.045a.36.36,0,0,0-.357.327l-.831,9.5a.358.358,0,0,0,.357.39m7.287,0h5.044a.358.358,0,0,0,.357-.328l.832-9.5a.359.359,0,0,0-.358-.39h-5.044a.359.359,0,0,0-.357.327l-.831,9.5a.359.359,0,0,0,.358.39m189.315-.484H297.583a.359.359,0,0,0-.358.328l-.593,6.776a.359.359,0,0,0,.358.39h27.667a.359.359,0,0,0,.357-.328l.593-6.776a.359.359,0,0,0-.357-.39M329.267,33.5l.593-6.776a.359.359,0,0,0-.357-.391H291.043a.359.359,0,0,0-.357.328l-.594,6.776a.36.36,0,0,0,.357.39h14.919a.364.364,0,0,1,.357.408c-1.851,14.649-6.015,19.373-12.76,22.35a.358.358,0,0,0-.195.446L294.98,63.2a.367.367,0,0,0,.489.209c12.091-5.344,16.092-15.213,17.774-29.265a.359.359,0,0,1,.354-.317H328.91a.359.359,0,0,0,.357-.328m-183.1-8.426H169.52a.365.365,0,0,1,.356.426c-4.049,23.26-22.145,29.521-24.831,30.326a.358.358,0,0,0-.249.4l1.242,7.1a.355.355,0,0,0,.45.284,44.3,44.3,0,0,0,14.83-8.15c6.979-5.739,15.629-16.371,17.208-34.425l.319-3.646a.359.359,0,0,0-.357-.389H146.811a.358.358,0,0,0-.357.327l-.644,7.353a.36.36,0,0,0,.357.39M25.99,7.721H18.637a.355.355,0,0,0-.356.311c-.166,1.414-.568,4.688-1.156,8.692a.362.362,0,0,1-.356.31H6.206a.358.358,0,0,0-.357.328l-.62,7.146a.359.359,0,0,0,.358.39h9.765a.359.359,0,0,1,.354.423,88.2,88.2,0,0,1-3.4,13.775C7.892,50.661,1.737,56.625.119,58.054a.354.354,0,0,0,0,.532L5.373,63.28a.353.353,0,0,0,.48,0c2.955-2.763,9.355-9.744,14-21.9a100.9,100.9,0,0,0,3.98-16.184.357.357,0,0,1,.352-.293h9.281a.359.359,0,0,1,.358.39L31.208,55.1a.359.359,0,0,1-.357.328H27.132a.358.358,0,0,0-.357.328l-.643,7.353a.358.358,0,0,0,.357.39H38.215a.358.358,0,0,0,.357-.327l4-45.75a.358.358,0,0,0-.357-.39H25.583a.36.36,0,0,1-.354-.413c.579-3.986.963-7.166,1.118-8.5a.356.356,0,0,0-.357-.4M236.343,60.887,243,63.425a.362.362,0,0,0,.456-.19c6.465-14.2,10.751-26.355,13.406-45.806a.362.362,0,0,0-.356-.412h-7.357a.361.361,0,0,0-.355.312c-2.515,18.23-6.561,29.7-12.647,43.072a.36.36,0,0,0,.2.485M273.92,19.134c-.091-.361-.189-.73-.287-1.086s-.192-.714-.28-1.031h-.007c-.119-.418-.223-.772-.292-1a.358.358,0,0,0-.4-.251L265.138,17a.357.357,0,0,0-.285.456c.85,2.78,5.9,20.187,7.412,45.583a.359.359,0,0,0,.408.336l7.376-1.058a.362.362,0,0,0,.308-.38,227.318,227.318,0,0,0-6.436-42.8h0m-82.2-9.658a12.033,12.033,0,0,1-3.6,5.186,18.916,18.916,0,0,0-2.738,3.491,1.327,1.327,0,0,1-2.245,0,18.866,18.866,0,0,0-2.738-3.491,12.02,12.02,0,0,1-3.6-5.186A7.289,7.289,0,0,1,178.5,2.4a8.126,8.126,0,0,1,11.541,0,7.289,7.289,0,0,1,1.687,7.072m-4.536-1.635a2.921,2.921,0,1,0-2.921,2.921,2.92,2.92,0,0,0,2.921-2.921m99.383,1.635a12.015,12.015,0,0,1-3.6,5.186,18.889,18.889,0,0,0-2.737,3.491,1.328,1.328,0,0,1-2.245,0,18.89,18.89,0,0,0-2.738-3.491,12.032,12.032,0,0,1-3.6-5.186A7.286,7.286,0,0,1,273.345,2.4a8.125,8.125,0,0,1,11.54,0,7.287,7.287,0,0,1,1.685,7.072m-4.535-1.635a2.921,2.921,0,1,0-2.921,2.921,2.92,2.92,0,0,0,2.921-2.921M188.214,63.11l4.006-45.782a.358.358,0,0,1,.357-.328h38.538a.358.358,0,0,1,.357.39l-4.006,45.783a.359.359,0,0,1-.357.327H188.571a.358.358,0,0,1-.357-.39m11.221-37.876L196.811,55.2a.359.359,0,0,0,.357.39h22.724a.36.36,0,0,0,.357-.328L222.872,25.3a.359.359,0,0,0-.357-.39H199.791a.358.358,0,0,0-.357.327" transform="translate(0)" fill="#fff"/>
</svg>
